<?xml version="1.0" encoding="UTF-8"?>
<svg version="1.1" xmlns="http://www.w3.org/2000/svg" width="770" height="217">
<path d="M0 0 C11.88 0 23.76 0 36 0 C35.67 3.96 35.34 7.92 35 12 C30.77083333 21.0625 30.77083333 21.0625 27.6875 24.8125 C22.82035735 28.77412774 17.87001886 31.76816991 12 34 C12.68835938 34.78310547 12.68835938 34.78310547 13.390625 35.58203125 C16.71395106 39.56862616 19.47459201 43.42422261 21.4375 48.25 C23.12414728 53.45534246 23.50311278 58.30853302 23.33984375 63.76171875 C22.82197432 68.69635967 21.57992758 73.30723891 20 78 C16.76628327 82.66697579 13.47407765 87.03121083 9.04296875 90.62109375 C3.85582129 94.12217034 -1.87195025 96.53483249 -7.9140625 98.11328125 C-15.78851442 99.77287493 -23.97415028 99.39605743 -31.984375 99.47851562 C-37.71339057 99.59643211 -42.96783919 99.71300595 -48.4375 101.53515625 C-49.613125 102.01855469 -50.78875 102.50195312 -52 103 C-52 104.65 -52 106.3 -52 108 C-50.35 108.99 -48.7 109.98 -47 111 C-46.39580231 111.00808685 -45.79160461 111.01617371 -45.1690979 111.02450562 C-38.84153327 111.11102181 -32.5142651 111.21054199 -26.18701172 111.31738281 C-23.83029181 111.35550385 -21.47351706 111.39038516 -19.11669922 111.421875 C-15.71562184 111.46789381 -12.31491657 111.52582589 -8.9140625 111.5859375 C-7.87198639 111.59748871 -6.82991028 111.60903992 -5.7562561 111.62094116 C0.67162168 111.74862506 6.77003811 112.35429444 13 114 C16.1640625 115.2890625 16.1640625 115.2890625 18.625 116.625 C19.88183594 117.29402344 19.88183594 117.29402344 21.1640625 117.9765625 C24.07178993 119.59746588 26.01250494 122.16402084 28.18359375 124.6640625 C30.39184787 127.50392478 31.88695109 130.25136731 33.22265625 133.58203125 C35.3232406 140.11600971 36.3913013 146.89124518 36.18359375 153.7578125 C35.75872185 158.94667355 34.89077952 163.75456331 32.96484375 168.609375 C30.76572649 173.27631195 28.29001995 177.60600516 24.78125 181.41015625 C20.43444619 185.2898693 15.45738263 187.9530283 10.12109375 190.2265625 C4.21417217 192.46074508 -1.21729764 193.90623433 -7.56881714 194.12025452 C-8.88786041 194.11803391 -10.20690369 194.11581329 -11.56591797 194.11352539 C-12.6645089 194.11374443 -12.6645089 194.11374443 -13.78529358 194.1139679 C-16.18762249 194.1132755 -18.58987226 194.10551482 -20.9921875 194.09765625 C-22.66513018 194.09578968 -24.33807342 194.0943669 -26.01101685 194.09336853 C-30.40040615 194.08956219 -34.78976203 194.07974808 -39.17913818 194.06866455 C-43.66369169 194.05840985 -48.14825063 194.05386223 -52.6328125 194.04882812 C-78.95374552 194.01677224 -78.95374552 194.01677224 -80.64013672 193.40527344 C-81.35443848 193.14262695 -82.06874023 192.87998047 -82.8046875 192.609375 C-83.51093262 192.35124023 -84.21717773 192.09310547 -84.94482422 191.82714844 C-88.00757235 190.59448145 -90.40036106 189.03450004 -93 187 C-95.12122666 184.74254777 -97.05068964 182.41343187 -99 180 C-99.99 177.36 -100.98 174.72 -102 172 C-102 166.72 -102 161.44 -102 156 C-100.02 152.04 -98.04 148.08 -96 144 C-94.27473958 142.53515625 -92.54947917 141.0703125 -90.82421875 139.60546875 C-89.14575321 138.12827531 -87.56117966 136.59960869 -86 135 C-86.66 135 -87.32 135 -88 135 C-90.93834428 130.92512633 -93.58578376 127.09202463 -95.375 122.375 C-96.05287322 118.71448459 -96.32044145 115.71712088 -96 112 C-95.13083116 107.96092129 -93.81984615 104.38380092 -91.7109375 100.82421875 C-89.27026065 97.3589797 -86.7520516 94.61194852 -83.3125 92.125 C-82.219375 91.42375 -81.12625 90.7225 -80 90 C-78.515 89.01 -78.515 89.01 -77 88 C-77.70125 87.505 -78.4025 87.01 -79.125 86.5 C-82.729039 83.36605304 -85.43695892 80.0236234 -88 76 C-89.4841525 73.05452812 -90.79248835 70.06850018 -92 67 C-92.61345291 53.41883408 -92.61345291 53.41883408 -91.109375 47.48828125 C-89.49174455 43.13093163 -87.94831777 39.87285694 -85 36.3125 C-81.9896695 32.8919441 -79.09391152 30.33005824 -75.1328125 28.0859375 C-67.55762683 24.22897483 -59.92410461 21.80223214 -51.4921875 20.52734375 C-39.47817302 19.10775997 -27.06842881 19.79415819 -15 20 C-10.05 15.545 -10.05 15.545 -5 11 C-3.35 7.37 -1.7 3.74 0 0 Z M-39 45 C-40.98 45.99 -42.96 46.98 -45 48 C-47.77000825 51.32086771 -47.77000825 51.32086771 -50 55 C-50 57.97 -50 60.94 -50 64 C-49.01 65.98 -48.02 67.96 -47 70 C-45.02 71.32 -43.04 72.64 -41 74 C-37.04 74 -33.08 74 -29 74 C-27.02 73.01 -25.04 72.02 -23 71 C-21.10786631 68.61426621 -19.97608217 66.92824652 -19 64 C-18.93259135 62.43881572 -18.91485544 60.8749748 -18.9375 59.3125 C-18.94652344 58.50425781 -18.95554687 57.69601563 -18.96484375 56.86328125 C-18.97644531 56.24839844 -18.98804687 55.63351563 -19 55 C-20.82224897 52.07138559 -22.46065847 49.4739668 -25.0625 47.1875 C-27.09005326 45.84435463 -27.09005326 45.84435463 -30 45 C-31.56118428 44.93259135 -33.1250252 44.91485544 -34.6875 44.9375 C-35.49574219 44.94652344 -36.30398437 44.95554688 -37.13671875 44.96484375 C-37.75160156 44.97644531 -38.36648437 44.98804688 -39 45 Z M-56 146 C-57.65 147.65 -59.3 149.3 -61 151 C-61 154.3 -61 157.6 -61 161 C-59.68 162.65 -58.36 164.3 -57 166 C-56.34 166.33 -55.68 166.66 -55 167 C-41.47 167 -27.94 167 -14 167 C-12.35 165.68 -10.7 164.36 -9 163 C-8.34 161.35 -7.68 159.7 -7 158 C-7.495 154.535 -7.495 154.535 -8 151 C-9.98 149.35 -11.96 147.7 -14 146 C-27.86 146 -41.72 146 -56 146 Z " fill="#222222" transform="translate(102,23)"/>
<path d="M0 0 C22.11 0 44.22 0 67 0 C77.71855604 4.76380269 77.71855604 4.76380269 82.05712891 8.80419922 C85.99318313 13.25266261 88.77957809 18.40986006 91.6875 23.5625 C92.37634526 24.75952693 93.06663316 25.95572472 93.75830078 27.15112305 C95.16207246 29.5797923 96.55889296 32.01227153 97.95166016 34.44726562 C99.87991417 37.8066822 101.85974235 41.13327617 103.85546875 44.453125 C104.74842651 45.94090454 104.74842651 45.94090454 105.65942383 47.45874023 C106.774841 49.3141709 107.89301931 51.16794544 109.0144043 53.01977539 C113.91938814 61.24659428 113.91938814 61.24659428 115 66 C115.13474123 68.66787642 115.19197861 71.21646441 115.125 73.875 C115.11597656 74.56335938 115.10695313 75.25171875 115.09765625 75.9609375 C115.02875373 80.9219192 115.02875373 80.9219192 114.31176758 82.86889648 C111.96668029 89.00773076 109.15369774 94.49101569 105.6875 100.0625 C104.62140113 101.79756629 103.55634902 103.53327606 102.4921875 105.26953125 C101.92854492 106.18686035 101.36490234 107.10418945 100.78417969 108.04931641 C98.87854719 111.20085915 97.03304375 114.38263937 95.1953125 117.57421875 C94.22718628 119.23795532 94.22718628 119.23795532 93.23950195 120.93530273 C91.9864832 123.0906601 90.74477388 125.25264585 89.51635742 127.42211914 C86.49505281 132.57240017 83.52045527 136.74621692 79.04296875 140.734375 C74.57009149 144.43483896 73.63449397 144.51206476 67 147 C44.89 147 22.78 147 0 147 C-10.64272073 142.2699019 -10.64272073 142.2699019 -15.09277344 138.12451172 C-18.77246024 134.02560817 -21.40460133 129.32864733 -24.125 124.5625 C-24.75881592 123.47807617 -25.39263184 122.39365234 -26.0456543 121.27636719 C-27.37063258 119.0062869 -28.68948856 116.73262301 -30.00244141 114.45556641 C-31.98570481 111.02472917 -33.99440746 107.61012918 -36.01171875 104.19921875 C-37.27920172 102.04980687 -38.54614903 99.90007901 -39.8125 97.75 C-40.40498535 96.74525635 -40.9974707 95.7405127 -41.60791016 94.70532227 C-42.15624512 93.76615967 -42.70458008 92.82699707 -43.26953125 91.859375 C-43.75010986 91.03920898 -44.23068848 90.21904297 -44.72583008 89.37402344 C-46 87 -46 87 -48 82 C-48 76.39 -48 70.78 -48 65 C-42.08670179 52.45226965 -34.95772484 40.74204598 -27.74609375 28.90332031 C-26.24044832 26.39980585 -24.7774322 23.8810626 -23.34375 21.3359375 C-20.07582466 15.56647409 -16.94599588 10.55073351 -11.9375 6.0625 C-7.54440627 2.52549633 -6.4532539 2.41997021 0 0 Z M14 41 C11.215625 45.7025 8.43125 50.405 5.5625 55.25 C4.68408447 56.72758789 3.80566895 58.20517578 2.90063477 59.72753906 C2.20549314 60.90666603 1.51072507 62.08601334 0.81640625 63.265625 C0.27348938 64.17417236 0.27348938 64.17417236 -0.28039551 65.10107422 C-1.68931204 67.50338794 -2.92367839 69.74981649 -3.73852539 72.42089844 C-3.82481201 72.94200195 -3.91109863 73.46310547 -4 74 C-1.94058334 77.66840645 0.12309422 81.33439923 2.1875 85 C2.76564453 86.02996094 3.34378906 87.05992188 3.93945312 88.12109375 C4.50986328 89.13300781 5.08027344 90.14492187 5.66796875 91.1875 C6.18641357 92.10917969 6.7048584 93.03085938 7.23901367 93.98046875 C9.41003839 97.70308537 11.71600446 101.34560714 14 105 C26.87 105 39.74 105 53 105 C55.784375 100.2975 58.56875 95.595 61.4375 90.75 C62.31591553 89.27241211 63.19433105 87.79482422 64.09936523 86.27246094 C64.79450686 85.09333397 65.48927493 83.91398666 66.18359375 82.734375 C66.54553833 82.12867676 66.90748291 81.52297852 67.28039551 80.89892578 C68.68931204 78.49661206 69.92367839 76.25018351 70.73852539 73.57910156 C70.82481201 73.05799805 70.91109863 72.53689453 71 72 C68.94058334 68.33159355 66.87690578 64.66560077 64.8125 61 C64.23435547 59.97003906 63.65621094 58.94007812 63.06054688 57.87890625 C62.49013672 56.86699219 61.91972656 55.85507813 61.33203125 54.8125 C60.55436401 53.42998047 60.55436401 53.42998047 59.76098633 52.01953125 C57.58996161 48.29691463 55.28399554 44.65439286 53 41 C40.13 41 27.26 41 14 41 Z " fill="#9F537B" transform="translate(655,24)"/>
<path d="M0 0 C14.52 0 29.04 0 44 0 C44 55.77 44 111.54 44 169 C32.12 169 20.24 169 8 169 C7.01 164.38 6.02 159.76 5 155 C4.01 155.86625 3.02 156.7325 2 157.625 C0.66945784 158.75329975 -0.66400009 159.87816801 -2 161 C-2.61359375 161.5259375 -3.2271875 162.051875 -3.859375 162.59375 C-7.28179446 165.36562692 -10.77515406 167.60281106 -14.8125 169.375 C-20.83586843 171.38559365 -26.7872344 171.49023945 -33.07910156 171.40234375 C-38.18769118 171.22330915 -42.97751738 170.84324262 -47.8046875 169.03515625 C-52.93207281 166.61743898 -57.63034741 164.04955839 -61.9375 160.32421875 C-66.57307725 155.49204335 -69.69480472 149.70882432 -72.4921875 143.6640625 C-76.18714942 134.68511358 -77.69294441 125.11051074 -78.11035156 115.44458008 C-78.43610639 100.49712674 -77.89675012 86.38004404 -73.19921875 72.04296875 C-70.83331638 66.03958783 -67.40945638 60.98085762 -63.6875 55.75 C-60.15397321 52.13429817 -56.4295377 49.43049309 -52 47 C-46.40414199 44.65628025 -40.74392542 43.19738143 -34.6875 42.76171875 C-27.78214261 42.6227338 -22.19245425 42.94493203 -15.5625 45 C-8.70211211 47.37760735 -8.31251374 48.31248931 -1 54 C-0.67 36.18 -0.34 18.36 0 0 Z M-22 78 C-23.98 78.99 -25.96 79.98 -28 81 C-31.83533139 85.24280088 -31.83533139 85.24280088 -32.64306641 87.78320312 C-34.87646276 94.47685032 -35.45921639 100.47261027 -35.375 107.5 C-35.38660156 108.46808594 -35.39820313 109.43617187 -35.41015625 110.43359375 C-35.3833851 117.08176155 -34.25341495 122.75135049 -32 129 C-31.22342041 129.67591187 -31.22342041 129.67591187 -30.43115234 130.36547852 C-29.19628906 131.44026693 -27.96142578 132.51505534 -26.7265625 133.58984375 C-25.04367666 135.06958624 -25.04367666 135.06958624 -23 136 C-19.37 136 -15.74 136 -12 136 C-9.55061905 134.74031837 -7.451992 133.4800888 -5.5546875 131.46484375 C-3.29597574 128.73502926 -1.71430222 126.48747873 -0.5 123.1875 C1.74014911 115.69900155 1.56156999 107.97097367 1.19042969 100.22460938 C0.79095202 95.55789072 -0.46695246 91.40751169 -2 87 C-3.98 84.69 -5.96 82.38 -8 80 C-9.65 79.34 -11.3 78.68 -13 78 C-15.97 78 -18.94 78 -22 78 Z " fill="#222222" transform="translate(556,0)"/>
<path d="M0 0 C14.19 0 28.38 0 43 0 C43.33 26.07 43.66 52.14 44 79 C45.32 81.64 46.64 84.28 48 87 C49.32 87.66 50.64 88.32 52 89 C55.3 89 58.6 89 62 89 C63.98 87.68 65.96 86.36 68 85 C69.32 82.69 70.64 80.38 72 78 C72.33 52.26 72.66 26.52 73 0 C87.52 0 102.04 0 117 0 C117 40.59 117 81.18 117 123 C105.12 123 93.24 123 81 123 C80.01 117.72 79.02 112.44 78 107 C76.783125 108.340625 75.56625 109.68125 74.3125 111.0625 C69.76133222 115.61366778 64.97557433 118.59716861 59.30859375 121.58984375 C54.86069588 123.48558298 50.56126843 124.75116234 45.76098633 125.2175293 C39.03529551 125.56201763 32.21731795 125.65085972 25.6015625 124.3125 C21.21832896 122.83914419 17.42706837 120.8088891 13.625 118.1875 C10.66682306 115.76058749 8.19919537 113.25553349 6.09375 110.0546875 C3.47301575 105.13145101 1.59319208 99.84946344 0.45729065 94.39303589 C-0.10465478 90.2234754 -0.13173968 86.16693948 -0.11352539 81.96533203 C-0.11367142 81.07688095 -0.11381744 80.18842987 -0.1139679 79.27305603 C-0.11327406 76.35128291 -0.10550647 73.42957441 -0.09765625 70.5078125 C-0.09579019 68.47614578 -0.09436717 66.44447861 -0.09336853 64.41281128 C-0.08955815 59.07648467 -0.07974051 53.74018545 -0.06866455 48.40386963 C-0.05661584 41.99526536 -0.05204115 35.58665191 -0.04621124 29.17803955 C-0.03652795 19.45200734 -0.01736103 9.72603519 0 0 Z " fill="#222222" transform="translate(230,46)"/>
<path d="M0 0 C4.38751277 1.06198442 8.34103921 2.50041152 12.26171875 4.74609375 C15.54177381 6.99316623 18.18003975 9.51597648 20.640625 12.63671875 C23.47709679 16.66704881 25.36368626 20.52450176 26.77217102 25.26712036 C29.33006818 35.92833665 29.33521966 46.20616732 29.2421875 57.11328125 C29.23657905 59.06625032 29.23231487 61.01922366 29.22932434 62.97219849 C29.21797378 68.06520634 29.18859305 73.15794976 29.1552124 78.25085449 C29.11884478 84.38678016 29.10530367 90.52279519 29.08785248 96.65879822 C29.05894816 105.93807958 29.00139313 115.21678288 28.94921875 124.49609375 C14.75921875 124.49609375 0.56921875 124.49609375 -14.05078125 124.49609375 C-14.38078125 98.75609375 -14.71078125 73.01609375 -15.05078125 46.49609375 C-16.37078125 43.85609375 -17.69078125 41.21609375 -19.05078125 38.49609375 C-20.70078125 37.50609375 -22.35078125 36.51609375 -24.05078125 35.49609375 C-26.69078125 35.49609375 -29.33078125 35.49609375 -32.05078125 35.49609375 C-35.51578125 37.47609375 -35.51578125 37.47609375 -39.05078125 39.49609375 C-41.72643643 43.16731539 -41.72643643 43.16731539 -43.66685486 47.24053955 C-44.21031419 50.43334424 -44.22904569 53.60556311 -44.25610352 56.83496094 C-44.26600311 57.56706284 -44.27590271 58.29916473 -44.28610229 59.05345154 C-44.31761945 61.46659136 -44.34243589 63.87975084 -44.3671875 66.29296875 C-44.38776548 67.96877547 -44.40876218 69.64457709 -44.43016052 71.32037354 C-44.48529399 75.72617462 -44.53474167 80.13202187 -44.58300781 84.53790283 C-44.64213015 89.82684873 -44.70831004 95.11571046 -44.7733078 100.40458679 C-44.87120753 108.4350376 -44.96013863 116.46554297 -45.05078125 124.49609375 C-59.24078125 124.49609375 -73.43078125 124.49609375 -88.05078125 124.49609375 C-88.05078125 84.23609375 -88.05078125 43.97609375 -88.05078125 2.49609375 C-76.17078125 2.49609375 -64.29078125 2.49609375 -52.05078125 2.49609375 C-51.06078125 7.44609375 -50.07078125 12.39609375 -49.05078125 17.49609375 C-47.97828125 16.32046875 -46.90578125 15.14484375 -45.80078125 13.93359375 C-40.81174882 8.97969535 -35.4014781 5.48931496 -29.05078125 2.49609375 C-19.69581584 -1.00271294 -9.83511165 -1.62449347 0 0 Z " fill="#222222" transform="translate(443.05078125,43.50390625)"/>
<path d="M0 0 C22.11 0 44.22 0 67 0 C77.125 4.5 77.125 4.5 80.5625 7.75 C81.22378906 8.36359375 81.88507813 8.9771875 82.56640625 9.609375 C83.03949219 10.06828125 83.51257813 10.5271875 84 11 C84.99 13.475 84.99 13.475 86 16 C76.1 25.9 66.2 35.8 56 46 C55.01 45.01 54.02 44.02 53 43 C53 42.34 53 41.68 53 41 C40.13 41 27.26 41 14 41 C13.34 42.65 12.68 44.3 12 46 C10.95850342 47.88434582 9.8813391 49.74923298 8.77734375 51.59765625 C7.84631836 53.17063477 7.84631836 53.17063477 6.89648438 54.77539062 C5.587753 56.97139751 4.27785193 59.16670772 2.96679688 61.36132812 C2.34740234 62.40869141 1.72800781 63.45605469 1.08984375 64.53515625 C0.52128662 65.487854 -0.04727051 66.44055176 -0.63305664 67.42211914 C-2.20397839 70.13531975 -2.20397839 70.13531975 -3 74 C0.63 80.27 4.26 86.54 8 93 C4.14505171 97.49743967 0.35400893 101.78742339 -3.8359375 105.93359375 C-4.36015289 106.4563942 -4.88436829 106.97919464 -5.42446899 107.51783752 C-7.0722787 109.16012345 -8.72355901 110.7988665 -10.375 112.4375 C-11.50413955 113.56161467 -12.63304778 114.68596174 -13.76171875 115.81054688 C-16.50515188 118.54305235 -19.25169985 121.27239009 -22 124 C-23.485 123.505 -23.485 123.505 -25 123 C-25.41773682 122.27522461 -25.83547363 121.55044922 -26.26586914 120.80371094 C-27.85172315 118.05259232 -29.43785856 115.30163618 -31.02416992 112.55078125 C-32.03390074 110.79959985 -33.04332207 109.04824002 -34.05273438 107.296875 C-34.70693359 106.1625 -35.36113281 105.028125 -36.03515625 103.859375 C-37.01766357 102.15491211 -37.01766357 102.15491211 -38.02001953 100.41601562 C-40.53711809 96.07332228 -43.08918427 91.75152725 -45.65014648 87.43457031 C-47 85 -47 85 -48 82 C-48.07973476 80.66474283 -48.10771338 79.32587917 -48.09765625 77.98828125 C-48.09443359 77.23095703 -48.09121094 76.47363281 -48.08789062 75.69335938 C-48.07951172 74.90767578 -48.07113281 74.12199219 -48.0625 73.3125 C-48.05798828 72.51521484 -48.05347656 71.71792969 -48.04882812 70.89648438 C-48.0370585 68.93095743 -48.01912348 66.96546915 -48 65 C-42.21176564 52.4100272 -34.94543068 40.72186371 -27.74609375 28.90332031 C-26.24044832 26.39980585 -24.7774322 23.8810626 -23.34375 21.3359375 C-20.07582466 15.56647409 -16.94599588 10.55073351 -11.9375 6.0625 C-7.54440627 2.52549633 -6.4532539 2.41997021 0 0 Z " fill="#5F329D" transform="translate(655,24)"/>
<path d="M0 0 C1.03253906 0.01353516 1.03253906 0.01353516 2.0859375 0.02734375 C3.76577838 0.05067487 5.44543746 0.08653674 7.125 0.125 C8.775 0.785 10.425 1.445 12.125 2.125 C12.125 15.325 12.125 28.525 12.125 42.125 C5.855 42.455 -0.415 42.785 -6.875 43.125 C-14.30380299 45.50329581 -14.30380299 45.50329581 -17.875 48.3125 C-18.535 48.910625 -19.195 49.50875 -19.875 50.125 C-20.53246104 51.47355962 -21.17531975 52.82924031 -21.8125 54.1875 C-22.17214844 54.94160156 -22.53179687 55.69570312 -22.90234375 56.47265625 C-25.61132082 63.8597865 -25.08805983 71.95775909 -25.19140625 79.71484375 C-25.21218735 81.01450577 -25.23296844 82.31416779 -25.25437927 83.6532135 C-25.30924033 87.08736175 -25.3588062 90.52156625 -25.40722656 93.95581055 C-25.4577064 97.46863731 -25.51320492 100.98138466 -25.56835938 104.49414062 C-25.67596942 111.37103175 -25.77527142 118.24797202 -25.875 125.125 C-40.065 125.125 -54.255 125.125 -68.875 125.125 C-68.875 84.865 -68.875 44.605 -68.875 3.125 C-56.995 3.125 -45.115 3.125 -32.875 3.125 C-32.215 7.085 -31.555 11.045 -30.875 15.125 C-30.215 15.125 -29.555 15.125 -28.875 15.125 C-26.895 12.485 -24.915 9.845 -22.875 7.125 C-15.08470092 2.63967629 -9.16538055 -0.23091075 0 0 Z " fill="#222222" transform="translate(209.875,42.875)"/>
</svg>
